<svg data-v-fde0c5aa="" xmlns="http://www.w3.org/2000/svg" viewBox="0 0 300 300" class="iconAboveSlogan"><!----><defs data-v-fde0c5aa=""><!----></defs><rect data-v-fde0c5aa="" fill="transparent" x="0" y="0" width="300px" height="300px" class="logo-background-square"></rect><defs data-v-fde0c5aa=""><!----></defs><g data-v-fde0c5aa="" id="4174e908-4f6f-412e-a953-3f51879c279c" fill="#000000" transform="matrix(5.999077043945857,0,0,5.999077043945857,20.00000000000003,121.2469775182231)"><path d="M8.03 11.31L8.03 7.55L9.84 7.14L9.98 7.27L9.98 7.27Q9.75 9.41 9.75 12.11L9.75 12.11L9.75 12.11Q9.75 12.76 9.73 13.80L9.73 13.80L9.73 13.80Q9.73 14.64 9.73 15.18L9.73 15.18L9.73 15.18Q9.73 15.72 9.85 16.03L9.85 16.03L9.85 16.03Q9.98 16.35 10.23 16.48L10.23 16.48L10.23 16.48Q10.48 16.61 10.98 16.64L10.98 16.64L10.98 16.98L10.89 17.19L8.15 17.19L7.83 16.89L7.83 16.89Q8.03 14.88 8.03 12.72L8.03 12.72L8.03 12.72Q8.03 12.49 7.89 12.42L7.89 12.42L7.89 12.42Q7.76 12.35 7.52 12.35L7.52 12.35L3.49 12.35L3.49 12.35Q3.08 12.35 3.08 12.74L3.08 12.74L3.08 12.74Q3.08 14.72 3.17 16.67L3.17 16.67L1.42 17.17L1.42 17.17Q1.40 17.16 1.38 17.13L1.38 17.13L1.38 17.13Q1.35 17.10 1.34 17.08L1.34 17.08L1.34 17.08Q1.32 17.06 1.32 17.05L1.32 17.05L1.32 17.05Q1.39 15.38 1.39 12.07L1.39 12.07L1.39 8.52L1.39 8.52Q1.39 8.36 1.25 8.23L1.25 8.23L1.25 8.23Q1.11 8.10 0.85 8.01L0.85 8.01L0.85 8.01Q0.59 7.92 0.43 7.88L0.43 7.88L0.43 7.88Q0.27 7.83 0 7.78L0 7.78L0 7.46L0.11 7.31L3.11 7.31L3.22 7.43L3.22 7.43Q3.07 10.36 3.07 11.31L3.07 11.31L3.07 11.31Q3.07 11.66 3.50 11.66L3.50 11.66L7.55 11.66L7.55 11.66Q7.72 11.66 7.82 11.63L7.82 11.63L7.82 11.63Q7.92 11.61 7.96 11.55L7.96 11.55L7.96 11.55Q8.00 11.49 8.02 11.45L8.02 11.45L8.02 11.45Q8.03 11.40 8.03 11.31L8.03 11.31ZM16.50 10.57L16.50 10.57L17.94 10.09L18.11 10.23L18.11 10.23Q18.04 11.81 18.04 14.05L18.04 14.05L18.04 14.05Q18.04 14.10 18.03 14.31L18.03 14.31L18.03 14.31Q18.02 14.53 18.02 14.69L18.02 14.69L18.02 14.69Q18.01 14.85 18.04 15.08L18.04 15.08L18.04 15.08Q18.06 15.31 18.12 15.46L18.12 15.46L18.12 15.46Q18.18 15.61 18.30 15.72L18.30 15.72L18.30 15.72Q18.43 15.83 18.61 15.83L18.61 15.83L18.61 15.83Q18.90 15.83 19.56 15.44L19.56 15.44L19.71 15.44L19.82 15.72L19.82 15.72Q19.48 16.05 19.30 16.22L19.30 16.22L19.30 16.22Q19.12 16.39 18.79 16.67L18.79 16.67L18.79 16.67Q18.46 16.94 18.17 17.07L18.17 17.07L18.17 17.07Q17.89 17.20 17.64 17.20L17.64 17.20L17.64 17.20Q16.78 17.20 16.63 16.24L16.63 16.24L16.49 16.15L16.49 16.15Q16.39 16.21 16.07 16.38L16.07 16.38L16.07 16.38Q15.75 16.54 15.60 16.62L15.60 16.62L15.60 16.62Q15.45 16.70 15.16 16.83L15.16 16.83L15.16 16.83Q14.88 16.97 14.69 17.03L14.69 17.03L14.69 17.03Q14.50 17.09 14.27 17.14L14.27 17.14L14.27 17.14Q14.04 17.20 13.86 17.20L13.86 17.20L13.86 17.20Q12.99 17.20 12.50 16.74L12.50 16.74L12.50 16.74Q12.42 16.67 12.36 16.59L12.36 16.59L12.36 16.59Q12.30 16.52 12.26 16.41L12.26 16.41L12.26 16.41Q12.22 16.30 12.19 16.21L12.19 16.21L12.19 16.21Q12.15 16.12 12.14 15.96L12.14 15.96L12.14 15.96Q12.12 15.80 12.11 15.70L12.11 15.70L12.11 15.70Q12.10 15.59 12.10 15.38L12.10 15.38L12.10 15.38Q12.09 15.16 12.09 15.04L12.09 15.04L12.09 15.04Q12.09 14.92 12.09 14.65L12.09 14.65L12.09 14.65Q12.09 14.38 12.09 14.23L12.09 14.23L12.09 14.23Q12.09 14.07 12.10 13.76L12.10 13.76L12.10 13.76Q12.11 13.46 12.11 13.32L12.11 13.32L12.11 13.32Q12.11 13.20 12.11 12.97L12.11 12.97L12.11 12.97Q12.11 12.74 12.11 12.62L12.11 12.62L12.11 12.62Q12.11 12.50 12.11 12.30L12.11 12.30L12.11 12.30Q12.11 12.11 12.09 12.00L12.09 12.00L12.09 12.00Q12.08 11.89 12.06 11.74L12.06 11.74L12.06 11.74Q12.03 11.59 11.99 11.52L11.99 11.52L11.99 11.52Q11.94 11.44 11.89 11.36L11.89 11.36L11.89 11.36Q11.83 11.28 11.75 11.25L11.75 11.25L11.75 11.25Q11.66 11.21 11.56 11.21L11.56 11.21L11.56 11.21Q11.31 11.21 10.71 11.59L10.71 11.59L10.51 11.24L10.51 11.24Q10.86 10.98 11.03 10.86L11.03 10.86L11.03 10.86Q11.21 10.73 11.54 10.53L11.54 10.53L11.54 10.53Q11.87 10.33 12.14 10.24L12.14 10.24L12.14 10.24Q12.42 10.14 12.67 10.14L12.67 10.14L12.67 10.14Q12.99 10.14 13.21 10.25L13.21 10.25L13.21 10.25Q13.43 10.36 13.54 10.55L13.54 10.55L13.54 10.55Q13.64 10.75 13.69 10.97L13.69 10.97L13.69 10.97Q13.73 11.19 13.73 11.48L13.73 11.48L13.73 11.48Q13.73 11.73 13.68 12.60L13.68 12.60L13.68 12.60Q13.63 13.46 13.63 13.92L13.63 13.92L13.63 13.92Q13.63 14.39 13.66 14.71L13.66 14.71L13.66 14.71Q13.69 15.03 13.77 15.32L13.77 15.32L13.77 15.32Q13.85 15.62 14.00 15.79L14.00 15.79L14.00 15.79Q14.14 15.96 14.39 16.06L14.39 16.06L14.39 16.06Q14.63 16.17 14.98 16.17L14.98 16.17L14.98 16.17Q15.42 16.17 15.78 16.00L15.78 16.00L15.78 16.00Q16.14 15.83 16.57 15.50L16.57 15.50L16.57 15.50Q16.58 14.95 16.58 13.79L16.58 13.79L16.58 13.79Q16.58 12.11 16.50 10.57ZM21.70 11.80L21.70 11.80L21.70 11.80Q21.70 13.29 21.74 14.85L21.74 14.85L21.74 14.85Q21.77 16.41 21.84 16.70L21.84 16.70L20.30 17.14L20.13 17.05L20.13 17.05Q20.23 13.62 20.23 12.95L20.23 12.95L20.23 12.95Q20.23 12.91 20.23 12.83L20.23 12.83L20.23 12.83Q20.23 12.54 20.23 12.40L20.23 12.40L20.23 12.40Q20.23 12.26 20.21 12.02L20.21 12.02L20.21 12.02Q20.20 11.79 20.17 11.67L20.17 11.67L20.17 11.67Q20.13 11.55 20.08 11.42L20.08 11.42L20.08 11.42Q20.02 11.29 19.93 11.23L19.93 11.23L19.93 11.23Q19.83 11.17 19.70 11.17L19.70 11.17L19.70 11.17Q19.62 11.17 19.51 11.20L19.51 11.20L19.51 11.20Q19.41 11.24 19.28 11.30L19.28 11.30L19.28 11.30Q19.16 11.37 19.07 11.42L19.07 11.42L19.07 11.42Q18.98 11.46 18.86 11.54L18.86 11.54L18.86 11.54Q18.74 11.61 18.72 11.63L18.72 11.63L18.47 11.29L18.47 11.29Q18.77 11.05 19.00 10.89L19.00 10.89L19.00 10.89Q19.23 10.72 19.54 10.52L19.54 10.52L19.54 10.52Q19.85 10.33 20.16 10.23L20.16 10.23L20.16 10.23Q20.46 10.13 20.73 10.13L20.73 10.13L20.73 10.13Q21.23 10.13 21.43 10.39L21.43 10.39L21.43 10.39Q21.63 10.66 21.66 11.09L21.66 11.09L21.83 11.16L21.83 11.16Q23.41 10.17 24.62 10.17L24.62 10.17L24.62 10.17Q25.03 10.17 25.31 10.32L25.31 10.32L25.31 10.32Q25.59 10.47 25.74 10.63L25.74 10.63L25.74 10.63Q25.88 10.80 25.95 11.24L25.95 11.24L25.95 11.24Q26.02 11.68 26.03 11.94L26.03 11.94L26.03 11.94Q26.04 12.20 26.03 12.86L26.03 12.86L26.03 12.86Q26.03 13.13 26.03 13.27L26.03 13.27L26.03 13.27Q26.03 13.48 26.01 13.98L26.01 13.98L26.01 13.98Q25.98 14.49 25.98 14.71L25.98 14.71L25.98 14.71Q25.98 15.09 26.02 15.30L26.02 15.30L26.02 15.30Q26.05 15.52 26.09 15.58L26.09 15.58L26.09 15.58Q26.13 15.65 26.21 15.72L26.21 15.72L26.21 15.72Q26.35 15.86 26.61 15.86L26.61 15.86L26.61 15.86Q27.03 15.86 27.54 15.50L27.54 15.50L27.71 15.50L27.86 15.73L27.86 15.73Q27.13 16.46 26.81 16.71L26.81 16.71L26.81 16.71Q26.15 17.23 25.63 17.23L25.63 17.23L25.63 17.23Q25.18 17.23 24.88 16.95L24.88 16.95L24.88 16.95Q24.79 16.87 24.73 16.77L24.73 16.77L24.73 16.77Q24.67 16.67 24.64 16.49L24.64 16.49L24.64 16.49Q24.60 16.32 24.58 16.17L24.58 16.17L24.58 16.17Q24.56 16.02 24.55 15.72L24.55 15.72L24.55 15.72Q24.55 15.42 24.55 15.20L24.55 15.20L24.55 15.20Q24.55 14.98 24.56 14.52L24.56 14.52L24.56 14.52Q24.56 14.06 24.56 13.73L24.56 13.73L24.56 13.73Q24.56 13.16 24.55 12.80L24.55 12.80L24.55 12.80Q24.53 12.44 24.44 11.99L24.44 11.99L24.44 11.99Q24.35 11.54 24.18 11.38L24.18 11.38L24.18 11.38Q23.95 11.16 23.40 11.16L23.40 11.16L23.40 11.16Q22.89 11.16 21.70 11.80ZM31.66 7.72L31.85 7.59L34.52 7.30L34.65 7.39L34.65 7.39Q34.63 7.66 34.59 8.23L34.59 8.23L34.59 8.23Q34.56 8.79 34.54 8.99L34.54 8.99L34.54 8.99Q34.53 9.18 34.51 9.56L34.51 9.56L34.51 9.56Q34.49 9.95 34.49 10.26L34.49 10.26L34.49 10.26Q34.48 10.58 34.48 10.99L34.48 10.99L34.47 15.09L34.47 15.09Q34.47 15.44 34.59 15.74L34.59 15.74L34.59 15.74Q34.71 16.04 34.97 16.04L34.97 16.04L34.97 16.04Q35.15 16.04 35.45 15.87L35.45 15.87L35.45 15.87Q35.75 15.71 35.96 15.52L35.96 15.52L36.20 15.83L36.20 15.83Q35.81 16.23 35.51 16.50L35.51 16.50L35.51 16.50Q35.21 16.76 34.75 17.00L34.75 17.00L34.75 17.00Q34.29 17.25 33.89 17.25L33.89 17.25L33.89 17.25Q33.46 17.25 33.24 16.94L33.24 16.94L33.24 16.94Q33.02 16.63 32.98 16.18L32.98 16.18L32.98 16.18Q31.47 17.23 30.30 17.23L30.30 17.23L30.30 17.23Q29.80 17.23 29.40 17.05L29.40 17.05L29.40 17.05Q29.00 16.86 28.75 16.58L28.75 16.58L28.75 16.58Q28.49 16.30 28.33 15.91L28.33 15.91L28.33 15.91Q28.16 15.53 28.10 15.16L28.10 15.16L28.10 15.16Q28.03 14.78 28.03 14.39L28.03 14.39L28.03 14.39Q28.03 12.51 29.00 11.33L29.00 11.33L29.00 11.33Q29.98 10.16 31.62 10.16L31.62 10.16L31.62 10.16Q32.40 10.16 32.90 10.33L32.90 10.33L33.00 10.26L33.00 8.96L33.00 8.96Q33.00 8.69 32.94 8.53L32.94 8.53L32.94 8.53Q32.87 8.37 32.71 8.29L32.71 8.29L32.71 8.29Q32.54 8.20 32.36 8.16L32.36 8.16L32.36 8.16Q32.18 8.13 31.83 8.08L31.83 8.08L31.83 8.08Q31.79 8.08 31.77 8.08L31.77 8.08L31.77 8.08Q31.75 8.07 31.72 8.07L31.72 8.07L31.72 8.07Q31.68 8.07 31.66 8.06L31.66 8.06L31.66 7.72ZM33.00 15.51L33.00 15.51L33.00 12.02L33.00 12.02Q33.00 11.26 32.72 10.98L32.72 10.98L32.72 10.98Q32.44 10.71 31.90 10.71L31.90 10.71L31.90 10.71Q31.42 10.71 31.03 10.90L31.03 10.90L31.03 10.90Q30.65 11.10 30.41 11.41L30.41 11.41L30.41 11.41Q30.17 11.72 30.02 12.14L30.02 12.14L30.02 12.14Q29.87 12.56 29.81 12.97L29.81 12.97L29.81 12.97Q29.75 13.37 29.75 13.79L29.75 13.79L29.75 13.79Q29.75 14.13 29.79 14.44L29.79 14.44L29.79 14.44Q29.83 14.75 29.93 15.08L29.93 15.08L29.93 15.08Q30.04 15.42 30.21 15.66L30.21 15.66L30.21 15.66Q30.38 15.90 30.67 16.05L30.67 16.05L30.67 16.05Q30.95 16.21 31.33 16.21L31.33 16.21L31.33 16.21Q32.10 16.21 33.00 15.51ZM37.99 13.82L37.99 13.82L37.99 13.82Q37.99 14.13 38.04 14.48L38.04 14.48L38.04 14.48Q38.08 14.82 38.19 15.22L38.19 15.22L38.19 15.22Q38.31 15.63 38.49 15.94L38.49 15.94L38.49 15.94Q38.66 16.25 38.98 16.46L38.98 16.46L38.98 16.46Q39.29 16.67 39.68 16.67L39.68 16.67L39.68 16.67Q40.05 16.67 40.34 16.56L40.34 16.56L40.34 16.56Q40.63 16.45 40.83 16.29L40.83 16.29L40.83 16.29Q41.02 16.13 41.16 15.85L41.16 15.85L41.16 15.85Q41.30 15.57 41.37 15.31L41.37 15.31L41.37 15.31Q41.44 15.06 41.48 14.68L41.48 14.68L41.48 14.68Q41.52 14.29 41.53 14.02L41.53 14.02L41.53 14.02Q41.54 13.75 41.54 13.34L41.54 13.34L41.54 13.34Q41.54 12.86 41.45 12.44L41.45 12.44L41.45 12.44Q41.37 12.02 41.19 11.65L41.19 11.65L41.19 11.65Q41.00 11.28 40.66 11.06L40.66 11.06L40.66 11.06Q40.31 10.85 39.84 10.85L39.84 10.85L39.84 10.85Q39.42 10.85 39.08 11.04L39.08 11.04L39.08 11.04Q38.75 11.24 38.55 11.54L38.55 11.54L38.55 11.54Q38.36 11.84 38.22 12.25L38.22 12.25L38.22 12.25Q38.09 12.65 38.04 13.04L38.04 13.04L38.04 13.04Q37.99 13.42 37.99 13.82ZM36.19 13.83L36.19 13.83L36.19 13.83Q36.19 12.30 37.24 11.29L37.24 11.29L37.24 11.29Q38.29 10.29 39.92 10.29L39.92 10.29L39.92 10.29Q41.55 10.29 42.40 11.05L42.40 11.05L42.40 11.05Q43.34 11.91 43.34 13.25L43.34 13.25L43.34 13.25Q43.34 14.10 43.14 14.77L43.14 14.77L43.14 14.77Q42.94 15.45 42.60 15.91L42.60 15.91L42.60 15.91Q42.26 16.37 41.78 16.67L41.78 16.67L41.78 16.67Q41.30 16.97 40.75 17.11L40.75 17.11L40.75 17.11Q40.20 17.25 39.56 17.25L39.56 17.25L39.56 17.25Q37.94 17.25 37.19 16.57L37.19 16.57L37.19 16.57Q36.19 15.66 36.19 13.83Z"></path></g><defs data-v-fde0c5aa=""><linearGradient data-v-fde0c5aa="" gradientTransform="rotate(25)" id="097c5f51-f0b6-4b18-aba0-c7f60a33c77f" x1="0%" y1="0%" x2="100%" y2="0%"><stop data-v-fde0c5aa="" offset="0%" stop-color="#326D8A" stop-opacity="1"></stop><stop data-v-fde0c5aa="" offset="100%" stop-color="#D468D7" stop-opacity="1"></stop></linearGradient></defs><g data-v-fde0c5aa="" id="530691e0-42c1-4730-b983-547ad1ece560" stroke="none" fill="url(#097c5f51-f0b6-4b18-aba0-c7f60a33c77f)" transform="matrix(1.4751853352815483,0,0,1.4751853352815483,76.29675737534048,25.705276957784108)"><path d="M28.3 40.4c.3-.2.7-.4 1.1-.5.2-.1.4-.1.6-.1.1-.1.2-.3.3-.4l.2-.8-.1-.2s-.4-.3-.9-.4c-.2 0-.5 0-.7.1-.2.2-.3.5-.5.7-.3.4-.5.9-.6 1.3-.1.4-.1.6-.1.6l.2.1s.3-.2.5-.4zM39.4 34.1c.2-.1.3-.2.3-.4.2-.3.2-.8.2-.8l-.1-.2s-.3-.3-.7-.5c-.2-.1-.4-.1-.6 0-.2.1-.3.3-.4.5-.6.6-1.1 1.4-1.1 1.4l.1.2s.9 0 1.7-.1c.2-.2.5-.1.6-.1zM49.5 32c.2 0 .4-.1.6-.2.4-.2.6-.6.6-.6V31s-.2-.5-.5-.8c-.2-.2-.4-.3-.6-.3-.2 0-.5.2-.7.2-.5.1-1 .3-1.3.4-.3.2-.6.3-.6.3v.2s.9.4 1.8.7c.3 0 .5.2.7.3zM58.9 32.4c.2.2.4.5.6.9.2.2.3.5.6.6.3.1.6.1.9 0 .3-.1.5-.3.6-.5.1-.2 0-.3 0-.3l-.1-.2-.2-.2c-.1-.1-.2-.3-.2-.4 0-.1 0-.2-.1-.3h-.5c-.4-.2-1-.3-1.4-.3-.2 0-.4.1-.5.2l-.1.1.1.2h.2c-.1.1 0 .1.1.2zM69.3 40c.2.2.4.3.6.3.4.1.9.1.9.1l.2-.1s.2-.5.1-1c0-.3-.1-.5-.3-.8-.2-.2-.5-.3-.8-.5-.5-.3-1-.6-1.5-.7-.4-.2-.7-.3-.7-.3l-.1.2s.1.3.4.7c.2.4.5.9.8 1.3.2.3.2.6.4.8zM75.7 45.7v.6c0 .2.1.5.1.7 0 .2 0 .5.1.7.1.2.3.3.5.4.4.2.9.2.9.2l.2-.1s.3-.4.4-.8c.1-.2.1-.4 0-.6-.1-.2-.4-.3-.5-.5-.2-.2-.3-.4-.5-.5l-.5-.5c-.1-.1-.2-.2-.4-.3h-.2-.1c-.1.1-.1.3-.1.3 0 .3 0 .3.1.4 0-.1 0 0 0 0zm.1-.3h.1v.1l-.1-.1c-.1.1-.2.1 0 0zM80.8 56.4c-.3-.4-.6-.5-.6-.5l-.2.1s.1.3.1.7c0 .4.1 1 0 1.5 0 .3-.2.5-.2.7 0 .2.1.4.2.6.2.4.6.8.6.8h.2s.5-.2.8-.7c.2-.2.3-.5.3-.9 0-.3-.2-.6-.3-1-.2-.4-.6-1-.9-1.3zM79.3 69.9s.5 0 .9-.2c.2-.1.4-.2.5-.5.1-.2 0-.5.1-.8.2-1 .1-2.1.1-2.1l-.2-.1s-.7.7-1.3 1.5c-.1.2-.4.3-.5.5-.1.2-.1.4 0 .6.1.4.3.8.3.8l.1.3zM51.3 70.4l5-5.1 5-5c.8-.8 1.7-1.7 2.6-2.5.9-.8 1.7-1.6 2.5-2.5 1.4-1.6 2.8-3.3 4.1-5 0 .1.1.3.1.4h.2c.1-.4.1-.8.2-1.2l.1-.7-.7.5c-2 1.4-3.8 3-5.5 4.6-.8.8-1.6 1.7-2.4 2.6l-2.3 2.7c-3.1 3.6-6.2 7.3-9.1 11l.2.2zM71.6 79.3c-1.5-.1-3.1-.2-4.8-.2-1.7-.1-3.5 0-5.4 0-1.9.1-3.8.1-5.8.2s-4 .2-6 .4c-2 .1-4 .3-6 .3s-3.9 0-5.8-.2c-1.9-.1-3.7-.2-5.4-.2-1.7 0-3.3.1-4.8.1-3 .2-5.5.4-7.2.6-1.7.2-2.7.4-2.7.4v.2s1 .1 2.8.2c1.8.1 4.3.2 7.3.2 1.5 0 3.1 0 4.8-.1 1.7-.1 3.5-.3 5.4-.4 1.9-.2 3.8-.3 5.8-.3s4 .1 6 .2 4 .3 6 .3c2 .1 3.9.1 5.8.1s3.7.1 5.4 0c1.7 0 3.3-.1 4.8-.1 3-.1 5.5-.3 7.3-.4 1.8-.1 2.8-.3 2.8-.3v-.2s-1-.1-2.7-.3c-2.1-.2-4.6-.4-7.6-.5z"></path><path d="M93.4 59.7l-.1-1.4c0-.5-.1-.9-.2-1.4l-.3-2.7-.6-2.7-.2-1.3c-.1-.4-.3-.9-.4-1.3l-.8-2.6-1.1-2.5-.5-1.3-.6-1.2c-.4-.8-.9-1.6-1.3-2.4l-1.5-2.3c-.3-.4-.5-.8-.8-1.1l-1-1.2c-.6-.7-1.1-1.5-1.8-2.1l-2-2c-.6-.7-1.3-1.3-2.1-1.8-.7-.6-1.4-1.2-2.2-1.7-1.6-1-3.1-2.2-4.7-2.9-.8-.4-1.5-.8-2.4-1.3-.8-.4-1.7-.7-2.5-1-1.7-.7-3.5-1.2-5.2-1.6-3.6-.9-7.2-1.3-10.9-1.3-3.6 0-7.3.5-10.8 1.4-3.5.9-6.9 2.2-10.1 3.9C23 27.1 17.2 31.9 13 38c-2 3-3.7 6.5-4.7 9.9-.5 1.8-.9 3.6-1.3 5.4-.3 1.8-.5 3.6-.5 5.5-.2 3.7.2 7.3 1 10.9.4 1.8.9 3.5 1.5 5.2.6 1.7 1.4 3.4 2.2 5l.2-.1c-1.3-3.3-2.3-6.8-2.9-10.3-.6-3.6-.7-7.1-.5-10.7.2-3.5.9-7 2-10.4 1.1-3.4 2.6-6.5 4.4-9.5 3.7-6 9-11.1 15.3-14.5 3.1-1.7 6.5-3 10-3.8 3.5-.8 7.1-1.1 10.6-1 3.6.2 7.1.7 10.5 1.7 1.7.5 3.4 1 5 1.7.8.3 1.6.7 2.4 1.1.7.3 1.6.8 2.3 1.3 1.6.8 3 1.9 4.4 2.9.7.5 1.3 1.1 2 1.7.7.6 1.3 1.1 1.9 1.8l1.8 1.9c.6.7 1.1 1.4 1.7 2l.8 1c.3.3.5.7.7 1.1l1.5 2.2 1.3 2.3.6 1.2.5 1.2 1.1 2.4.9 2.5c.1.4.3.8.4 1.2l.3 1.3c.2.9.4 1.7.6 2.6l.4 2.6c.1.4.2.9.2 1.3l.1 1.3c.4 3.5.1 7.1-.3 10.6-.4 1.7-.6 3.5-1.2 5.2-.3.8-.5 1.7-.8 2.6l-.7 1.9-.1-.8h-.2v2.2l.3-.6 1.2-2.4c.4-.8.7-1.7 1-2.5.7-1.7 1.1-3.5 1.5-5.2.2-.9.3-1.8.5-2.7.1-.9.3-1.8.3-2.7l.2-2.7c.1-1.2.1-2.2 0-3.1z"></path></g><defs data-v-fde0c5aa=""><!----></defs><g data-v-fde0c5aa="" id="1bef19cd-c733-45e0-a1ca-6b65702db609" fill="#000000" transform="matrix(1.2776831754598832,0,0,1.2776831754598832,51.976149902630816,232.04792484025558)"><path d="M7.74 3.22L7.74 2.21L0.49 2.21L0.49 3.19L6.45 3.19L0.41 10.49L0.41 11.48L7.74 11.48L7.74 10.50L1.69 10.50ZM23.13 3.22L23.13 2.21L16.31 2.21L16.31 11.48L23.13 11.48L23.13 10.47L17.36 10.47L17.36 7.35L22.51 7.35L22.51 6.33L17.36 6.33L17.36 3.22ZM32.87 7.92L36.09 7.92L38.33 11.48L39.58 11.48L37.14 7.74C38.18 7.50 39.38 6.90 39.38 5.11C39.38 3.35 38.16 2.21 36.26 2.21L31.82 2.21L31.82 11.48L32.87 11.48ZM32.87 3.21L36.13 3.21C37.45 3.21 38.33 3.93 38.33 5.11C38.33 6.55 37.07 6.93 36.08 6.93L32.87 6.93ZM52.30 2.10C49.49 2.10 47.60 4.21 47.60 6.85C47.60 9.48 49.49 11.59 52.30 11.59C55.12 11.59 57.01 9.48 57.01 6.85C57.01 4.21 55.12 2.10 52.30 2.10ZM52.30 10.57C50.05 10.57 48.65 8.93 48.65 6.85C48.65 4.76 50.05 3.12 52.30 3.12C54.56 3.12 55.96 4.76 55.96 6.85C55.96 8.93 54.56 10.57 52.30 10.57ZM82.25 2.21L74.73 2.21L74.73 3.22L77.97 3.22L77.97 11.48L79.02 11.48L79.02 3.22L82.25 3.22ZM94.30 2.10C91.49 2.10 89.60 4.21 89.60 6.85C89.60 9.48 91.49 11.59 94.30 11.59C97.12 11.59 99.01 9.48 99.01 6.85C99.01 4.21 97.12 2.10 94.30 2.10ZM94.30 10.57C92.05 10.57 90.65 8.93 90.65 6.85C90.65 4.76 92.05 3.12 94.30 3.12C96.56 3.12 97.96 4.76 97.96 6.85C97.96 8.93 96.56 10.57 94.30 10.57ZM118.43 2.21L118.43 3.22L120.39 3.22L120.39 11.48L121.44 11.48L121.44 2.21ZM135.09 2.10C132.90 2.10 131.84 3.75 131.84 6.85C131.84 9.94 132.90 11.59 135.09 11.59C137.27 11.59 138.33 9.94 138.33 6.85C138.33 4.42 137.63 2.14 135.09 2.10ZM135.09 10.57C133.55 10.57 132.89 9.32 132.89 6.85C132.89 4.37 133.55 3.12 135.09 3.12C136.63 3.12 137.28 4.37 137.28 6.85C137.28 8.57 136.99 10.53 135.09 10.57ZM149.79 2.10C147.60 2.10 146.54 3.75 146.54 6.85C146.54 9.94 147.60 11.59 149.79 11.59C151.97 11.59 153.03 9.94 153.03 6.85C153.03 4.42 152.33 2.14 149.79 2.10ZM149.79 10.57C148.25 10.57 147.59 9.32 147.59 6.85C147.59 4.37 148.25 3.12 149.79 3.12C151.33 3.12 151.98 4.37 151.98 6.85C151.98 8.57 151.69 10.53 149.79 10.57Z"></path></g></svg>